<?xml version="1.0" encoding="iso-8859-1"?>
<!DOCTYPE svg PUBLIC "-//W3C//DTD SVG 1.1//EN" "http://www.w3.org/Graphics/SVG/1.1/DTD/svg11.dtd">
<svg 
 version="1.1" xmlns="http://www.w3.org/2000/svg" xmlns:xlink="http://www.w3.org/1999/xlink" x="0px" y="0px" width="512px"
	 height="512px" viewBox="0 0 512 512" style="enable-background:new 0 0 512 512;" xml:space="preserve"
><g id="afcae5a789ccd549f9c6e2a2f80bef91"><g></g><g fill="#fe8d00"><path style="display: inline;" d="M483.111,132.982H333.147c21.084-10.066,41.909-23.437,56.69-36.555
		c36.954-32.795,25.758-61.417,3.584-81.094C383.038,6.118,372.083,0.5,359.579,0.5c-14.194,0-30.389,7.237-50.038,24.669
		C288.318,44.004,266.525,73.882,256,99.635c-10.526-25.753-32.318-55.631-53.542-74.466C182.81,7.737,166.616,0.496,152.421,0.5
		c-12.505,0-23.46,5.618-33.843,14.833c-22.174,19.677-33.37,48.298,3.584,81.094c14.782,13.118,35.605,26.488,56.69,36.555H28.889
		v115.917H66.74V511.5h378.52V248.899h37.852V132.982z M336.307,48.923c14.673-13.019,21.996-14.638,23.134-14.815
		c0.613,0.214,2.968,1.208,7.218,4.979c5.771,5.12,9.098,10.069,9.365,13.939c0.338,4.883-4.383,12.043-12.951,19.646
		c-20.431,18.135-51.432,34.255-72.485,40.584C297.639,95.366,315.345,67.524,336.307,48.923z M135.978,53.027
		c0.268-3.871,3.595-8.82,9.365-13.939c4.253-3.777,6.606-4.769,7.219-4.979c1.133,0.177,8.457,1.792,23.131,14.815
		c20.963,18.601,38.668,46.443,45.72,64.334c-21.053-6.329-52.054-22.449-72.484-40.584C140.36,65.07,135.639,57.91,135.978,53.027z
		 M66.74,170.833h151.408v40.214H66.74V170.833z M407.407,473.648H293.852V303.315h-75.703v170.333H104.592V248.899h302.815V473.648
		z M445.26,211.047H293.852v-40.214H445.26V211.047z"></path></g></g></svg>